<svg xmlns="http://www.w3.org/2000/svg" version="1.1" viewBox="0 0 5000 5000" style="shape-rendering:geometricPrecision; text-rendering:geometricPrecision; image-rendering:optimizeQuality; fill-rule:evenodd; clip-rule:evenodd" xmlns:xlink="http://www.w3.org/1999/xlink">
  <g>
    <path
      style="opacity:1" 
      fill="#dabdb8" 
      d="M 1909.5,782.5 C 2168.33,777.051 2398.33,854.551 2599.5,1015C 2699.68,1097.07 2781.85,1193.9 2846,1305.5C 2846.78,1307.21 2848.11,1308.21 2850,1308.5C 3134.85,1256 3397.69,1309.5 3638.5,1469C 3839.43,1607.68 3976.59,1793.84 4050,2027.5C 4125.86,2290.74 4103.19,2545.08 3982,2790.5C 3936,2881.24 3882,2966.57 3820,3046.5C 3752.02,3132.51 3678.18,3213.67 3598.5,3290C 3466.59,3413.29 3326.59,3525.96 3178.5,3628C 2938.95,3791.85 2687.62,3937.52 2424.5,4065C 2316.16,4118.17 2206.16,4167.51 2094.5,4213C 2064.36,4221.62 2039.19,4214.12 2019,4190.5C 2011.32,4180.48 2006.99,4169.14 2006,4156.5C 2007.49,3853.46 2009.16,3550.46 2011,3247.5C 1844.64,3144.24 1686.14,3030.07 1535.5,2905C 1437.91,2823.08 1346.41,2734.58 1261,2639.5C 1187.03,2556.21 1121.36,2466.88 1064,2371.5C 1015.56,2289.29 976.898,2202.62 948,2111.5C 898.662,1944.23 891.995,1775.23 928,1604.5C 981.426,1365.68 1102.26,1169.18 1290.5,1015C 1471.22,871.016 1677.55,793.516 1909.5,782.5 Z M 1915.5,915.5 C 2181.05,912.352 2407.22,1004.02 2594,1190.5C 2639.51,1237.99 2679.68,1289.49 2714.5,1345C 2481.6,1429.27 2299.43,1576.1 2168,1785.5C 2072.05,1943.92 2021.38,2115.92 2016,2301.5C 2014.82,2559.83 2013.49,2818.17 2012,3076.5C 2011.83,3080.21 2011.33,3083.88 2010.5,3087.5C 1833.81,2974.36 1667.81,2846.86 1512.5,2705C 1412.05,2611.93 1321.88,2510.43 1242,2400.5C 1188.05,2324.75 1142.72,2243.75 1106,2157.5C 1029.88,1970.29 1017.88,1778.96 1070,1583.5C 1128.21,1378.45 1243.04,1213.28 1414.5,1088C 1564.21,981.26 1731.21,923.76 1915.5,915.5 Z M 3023.5,1421.5 C 3273.31,1418.02 3489.98,1499.85 3673.5,1667C 3846.69,1831.99 3941.86,2034.49 3959,2274.5C 3966.62,2401.77 3947.29,2524.77 3901,2643.5C 3865.3,2732.26 3820.3,2815.59 3766,2893.5C 3689.18,3001.37 3602.35,3101.2 3505.5,3193C 3378.64,3311.58 3243.97,3419.91 3101.5,3518C 3065.67,3542.41 3029.67,3566.58 2993.5,3590.5C 2989.49,2983.16 2985.66,2375.83 2982,1768.5C 2976.33,1652.97 2951.83,1541.64 2908.5,1434.5C 2910.88,1432.93 2913.55,1432.1 2916.5,1432C 2952.15,1426.77 2987.82,1423.27 3023.5,1421.5 Z M 2774.5,1465.5 C 2775.68,1465.28 2776.68,1465.61 2777.5,1466.5C 2819.59,1564.87 2843.42,1667.53 2849,1774.5C 2852.7,2363.83 2856.2,2953.16 2859.5,3542.5C 2612.67,3434.76 2374.67,3311.43 2145.5,3172.5C 2145.17,3159.33 2144.83,3146.17 2144.5,3133C 2146.16,2848.83 2147.99,2564.66 2150,2280.5C 2167.48,2025.4 2270.98,1813.23 2460.5,1644C 2553.09,1564.18 2657.76,1504.68 2774.5,1465.5 Z M 2143.5,3328.5 C 2370.13,3460.82 2604.47,3578.98 2846.5,3683C 2619.34,3819.92 2383.67,3941.76 2139.5,4048.5C 2140.89,3808.5 2142.23,3568.5 2143.5,3328.5 Z"/>
    
    <animateTransform 
      attributeName="transform" 
      attributeType="XML" 
      type="rotate" 
      from="0 2500 2500" 
      to="360 2500 2500" 
      dur="3s" 
      repeatCount="5s" />
  </g>
</svg>
